<?xml version="1.0" encoding="iso-8859-1"?>
<!-- Uploaded to: SVG Repo, www.svgrepo.com, Generator: SVG Repo Mixer Tools -->
<svg height="800px" width="800px" version="1.1" id="Layer_1" xmlns="http://www.w3.org/2000/svg" xmlns:xlink="http://www.w3.org/1999/xlink" 
	 viewBox="0 0 512 512" xml:space="preserve">
<circle style="fill:#ECE5DD;" cx="256.636" cy="256" r="247.916"/>
<path style="fill:#D9CBBD;" d="M256.637,8.084c-10.96,0-21.752,0.72-32.337,2.099C345.941,26.029,439.879,130.04,439.879,256
	S345.941,485.971,224.3,501.817c10.585,1.379,21.377,2.099,32.337,2.099c136.921,0,247.916-110.996,247.916-247.916
	S393.557,8.084,256.637,8.084z"/>
<path style="fill:#1D81CE;" d="M194.64,418.937c-1.106,0-1.945-0.997-1.756-2.087l39.848-229.126
	c1.791-10.304,10.683-17.781,21.141-17.781h67.647c35.786,0,65.648,28.417,66.195,64.198c0.556,36.42-28.909,66.227-65.205,66.227
	H279.84l-21.96,117.115c-0.158,0.843-0.894,1.453-1.752,1.453H194.64z"/>
<path style="fill:#013F8A;" d="M138.935,364.328c-1.12,0-1.968-1.009-1.776-2.113l39.843-229.1
	c1.791-10.304,10.683-17.781,21.141-17.781h67.594c35.815,0,65.729,28.439,66.247,64.25c0.528,36.397-28.926,66.175-65.205,66.175
	h-42.623c-0.026,0-0.049,0.018-0.053,0.044l-21.948,117.054c-0.16,0.853-0.904,1.471-1.772,1.471h-61.448V364.328z"/>
<path style="fill:#003168;" d="M223.922,246.768l8.811-59.044c1.791-10.303,10.682-17.781,21.141-17.781h68.636
	c0.249,0,0.497,0.008,0.745,0.016l8.379,0.127l0.315,8.512c0.023,0.648,0.044,1.296,0.044,1.949
	c0,35.957-29.254,65.213-65.213,65.213L223.922,246.768z"/>
<path d="M256,512c-68.379,0-132.667-26.628-181.019-74.982C26.628,388.667,0,324.379,0,256S26.628,123.333,74.981,74.982
	C123.333,26.628,187.62,0,256,0s132.667,26.628,181.019,74.982C485.372,123.333,512,187.62,512,256s-26.628,132.667-74.981,181.019
	C388.667,485.372,324.379,512,256,512z M256,16.168C123.756,16.168,16.168,123.756,16.168,256S123.756,495.832,256,495.832
	S495.832,388.244,495.832,256S388.244,16.168,256,16.168z"/>
<path d="M375.743,186.891c-10.023-11.6-23.422-19.717-38.186-23.234c-7.636-32.001-36.473-55.867-70.779-55.867h-68.636
	c-14.135,0-26.153,10.107-28.575,24.034l-40.101,230.581c-0.409,2.352,0.243,4.763,1.777,6.588c1.536,1.826,3.801,2.881,6.187,2.881
	h54.259l-8.309,44.321c-0.443,2.363,0.189,4.802,1.725,6.653c1.536,1.851,3.817,2.921,6.221,2.921H256
	c3.907,0,7.254-2.794,7.954-6.638L284.304,307.2h36.369c40.119,0,72.758-32.639,72.758-72.758
	C393.432,216.977,387.15,200.09,375.743,186.891z M320.674,291.032h-43.116c-3.907,0-7.254,2.794-7.954,6.638L249.253,409.6h-48.186
	l16.233-86.579c0.932-4.976-2.884-9.574-7.946-9.574l0,0c-3.89,0-7.228,2.771-7.946,6.595l-6.686,35.663h-47.679l38.454-221.112
	c1.071-6.163,6.39-10.636,12.645-10.636h67.686c30.986,0,56.94,24.513,57.528,55.494c0.604,31.702-25.009,57.685-56.578,57.685
	h-43.116c-3.89,0-7.229,2.771-7.946,6.595l-6.924,36.931c-0.932,4.976,2.884,9.574,7.946,9.574l0,0c3.89,0,7.228-2.771,7.946-6.595
	l5.688-30.336h36.406c39.94,0,72.467-32.345,72.756-72.219c22.087,7.879,37.728,29.248,37.728,53.356
	C377.263,265.645,351.878,291.032,320.674,291.032z"/>
</svg>